<svg aria-roledescription="er" role="graphics-document document" viewBox="0 0 462.0934753417969 753" style="max-width: 100%;" xmlns="http://www.w3.org/2000/svg" width="100%" id="graph-div" height="100%" xmlns:xlink="http://www.w3.org/1999/xlink"><style>@import url("https://cdnjs.cloudflare.com/ajax/libs/font-awesome/6.4.2/css/all.min.css");'</style><style>#graph-div{font-family:"trebuchet ms",verdana,arial,sans-serif;font-size:16px;fill:#ccc;}#graph-div .error-icon{fill:#a44141;}#graph-div .error-text{fill:#ddd;stroke:#ddd;}#graph-div .edge-thickness-normal{stroke-width:2px;}#graph-div .edge-thickness-thick{stroke-width:3.5px;}#graph-div .edge-pattern-solid{stroke-dasharray:0;}#graph-div .edge-pattern-dashed{stroke-dasharray:3;}#graph-div .edge-pattern-dotted{stroke-dasharray:2;}#graph-div .marker{fill:lightgrey;stroke:lightgrey;}#graph-div .marker.cross{stroke:lightgrey;}#graph-div svg{font-family:"trebuchet ms",verdana,arial,sans-serif;font-size:16px;}#graph-div .entityBox{fill:#1f2020;stroke:#81B1DB;}#graph-div .attributeBoxOdd{fill:hsl(0, 0%, 32%);stroke:#81B1DB;}#graph-div .attributeBoxEven{fill:hsl(0, 0%, 22%);stroke:#81B1DB;}#graph-div .relationshipLabelBox{fill:hsl(20, 1.5873015873%, 12.3529411765%);opacity:0.7;background-color:hsl(20, 1.5873015873%, 12.3529411765%);}#graph-div .relationshipLabelBox rect{opacity:0.5;}#graph-div .relationshipLine{stroke:lightgrey;}#graph-div .entityTitleText{text-anchor:middle;font-size:18px;fill:#ccc;}#graph-div #MD_PARENT_START{fill:#f5f5f5!important;stroke:lightgrey!important;stroke-width:1;}#graph-div #MD_PARENT_END{fill:#f5f5f5!important;stroke:lightgrey!important;stroke-width:1;}#graph-div :root{--mermaid-font-family:"trebuchet ms",verdana,arial,sans-serif;}</style><g></g><defs><marker orient="auto" markerHeight="240" markerWidth="190" refY="7" refX="0" id="MD_PARENT_START"><path d="M 18,7 L9,13 L1,7 L9,1 Z"></path></marker></defs><defs><marker orient="auto" markerHeight="28" markerWidth="20" refY="7" refX="19" id="MD_PARENT_END"><path d="M 18,7 L9,13 L1,7 L9,1 Z"></path></marker></defs><defs><marker orient="auto" markerHeight="18" markerWidth="18" refY="9" refX="0" id="ONLY_ONE_START"><path d="M9,0 L9,18 M15,0 L15,18" fill="none" stroke="gray"></path></marker></defs><defs><marker orient="auto" markerHeight="18" markerWidth="18" refY="9" refX="18" id="ONLY_ONE_END"><path d="M3,0 L3,18 M9,0 L9,18" fill="none" stroke="gray"></path></marker></defs><defs><marker orient="auto" markerHeight="18" markerWidth="30" refY="9" refX="0" id="ZERO_OR_ONE_START"><circle r="6" cy="9" cx="21" fill="white" stroke="gray"></circle><path d="M9,0 L9,18" fill="none" stroke="gray"></path></marker></defs><defs><marker orient="auto" markerHeight="18" markerWidth="30" refY="9" refX="30" id="ZERO_OR_ONE_END"><circle r="6" cy="9" cx="9" fill="white" stroke="gray"></circle><path d="M21,0 L21,18" fill="none" stroke="gray"></path></marker></defs><defs><marker orient="auto" markerHeight="36" markerWidth="45" refY="18" refX="18" id="ONE_OR_MORE_START"><path d="M0,18 Q 18,0 36,18 Q 18,36 0,18 M42,9 L42,27" fill="none" stroke="gray"></path></marker></defs><defs><marker orient="auto" markerHeight="36" markerWidth="45" refY="18" refX="27" id="ONE_OR_MORE_END"><path d="M3,9 L3,27 M9,18 Q27,0 45,18 Q27,36 9,18" fill="none" stroke="gray"></path></marker></defs><defs><marker orient="auto" markerHeight="36" markerWidth="57" refY="18" refX="18" id="ZERO_OR_MORE_START"><circle r="6" cy="18" cx="48" fill="white" stroke="gray"></circle><path d="M0,18 Q18,0 36,18 Q18,36 0,18" fill="none" stroke="gray"></path></marker></defs><defs><marker orient="auto" markerHeight="36" markerWidth="57" refY="18" refX="39" id="ZERO_OR_MORE_END"><circle r="6" cy="18" cx="9" fill="white" stroke="gray"></circle><path d="M21,18 Q39,0 57,18 Q39,36 21,18" fill="none" stroke="gray"></path></marker></defs><path style="stroke: gray; fill: none;" marker-start="url(#ZERO_OR_MORE_START)" marker-end="url(#ONLY_ONE_END)" d="M102.341,128L98.335,136.333C94.328,144.667,86.315,161.333,82.309,183.25C78.303,205.167,78.303,232.333,78.303,245.917L78.303,259.5" class="er relationshipLine"></path><path style="stroke: gray; fill: none;" marker-start="url(#ZERO_OR_MORE_START)" marker-end="url(#ONLY_ONE_END)" d="M178.394,119.8L189.003,129.5C199.612,139.2,220.83,158.6,236.582,177.425C252.334,196.249,262.62,214.499,267.763,223.624L272.906,232.748" class="er relationshipLine"></path><path style="stroke: gray; fill: none;" marker-start="url(#ZERO_OR_MORE_START)" marker-end="url(#ONLY_ONE_END)" d="M392.093,107L392.093,118.833C392.093,130.667,392.093,154.333,389.746,174.5C387.399,194.667,382.704,211.333,380.356,219.667L378.009,228" class="er relationshipLine"></path><path style="stroke: gray; fill: none;" marker-start="url(#ONLY_ONE_START)" marker-end="url(#ZERO_OR_MORE_END)" d="M78.303,451.5L78.303,465.083C78.303,478.667,78.303,505.833,94.977,533.308C111.651,560.782,145,588.564,161.674,602.455L178.348,616.346" class="er relationshipLine"></path><path style="stroke: gray; fill: none;" marker-start="url(#ONLY_ONE_START)" marker-end="url(#ZERO_OR_MORE_END)" d="M342.093,483L342.093,491.333C342.093,499.667,342.093,516.333,331.469,536.342C320.845,556.351,299.597,579.702,288.973,591.377L278.348,603.053" class="er relationshipLine"></path><g transform="translate(78.2109375,20 )" id="entity-MediaTrack-58940dd9-5e1a-56c4-a345-a2dfa83dc53b"><rect height="108" width="100.18331909179688" y="0" x="0" class="er entityBox"></rect><text transform="translate(50.09165954589844,12)" style="dominant-baseline: middle; text-anchor: middle; font-size: 12px;" y="0" x="0" id="text-entity-MediaTrack-58940dd9-5e1a-56c4-a345-a2dfa83dc53b" class="er entityLabel">MediaTrack</text><rect height="21" width="35.245819091796875" y="24" x="0" class="er attributeBoxOdd"></rect><text transform="translate(5,34.5)" style="dominant-baseline: middle; font-size: 10.2px;" y="0" x="0" id="text-entity-MediaTrack-58940dd9-5e1a-56c4-a345-a2dfa83dc53b-attr-1-type" class="er entityLabel">uint</text><rect height="21" width="64.9375" y="24" x="35.245819091796875" class="er attributeBoxOdd"></rect><text transform="translate(40.245819091796875,34.5)" style="dominant-baseline: middle; font-size: 10.2px;" y="0" x="0" id="text-entity-MediaTrack-58940dd9-5e1a-56c4-a345-a2dfa83dc53b-attr-1-name" class="er entityLabel">user_id</text><rect height="21" width="35.245819091796875" y="45" x="0" class="er attributeBoxEven"></rect><text transform="translate(5,55.5)" style="dominant-baseline: middle; font-size: 10.2px;" y="0" x="0" id="text-entity-MediaTrack-58940dd9-5e1a-56c4-a345-a2dfa83dc53b-attr-2-type" class="er entityLabel">uint</text><rect height="21" width="64.9375" y="45" x="35.245819091796875" class="er attributeBoxEven"></rect><text transform="translate(40.245819091796875,55.5)" style="dominant-baseline: middle; font-size: 10.2px;" y="0" x="0" id="text-entity-MediaTrack-58940dd9-5e1a-56c4-a345-a2dfa83dc53b-attr-2-name" class="er entityLabel">media_id</text><rect height="21" width="35.245819091796875" y="66" x="0" class="er attributeBoxOdd"></rect><text transform="translate(5,76.5)" style="dominant-baseline: middle; font-size: 10.2px;" y="0" x="0" id="text-entity-MediaTrack-58940dd9-5e1a-56c4-a345-a2dfa83dc53b-attr-3-type" class="er entityLabel">uint</text><rect height="21" width="64.9375" y="66" x="35.245819091796875" class="er attributeBoxOdd"></rect><text transform="translate(40.245819091796875,76.5)" style="dominant-baseline: middle; font-size: 10.2px;" y="0" x="0" id="text-entity-MediaTrack-58940dd9-5e1a-56c4-a345-a2dfa83dc53b-attr-3-name" class="er entityLabel">rating</text><rect height="21" width="35.245819091796875" y="87" x="0" class="er attributeBoxEven"></rect><text transform="translate(5,97.5)" style="dominant-baseline: middle; font-size: 10.2px;" y="0" x="0" id="text-entity-MediaTrack-58940dd9-5e1a-56c4-a345-a2dfa83dc53b-attr-4-type" class="er entityLabel">string</text><rect height="21" width="64.9375" y="87" x="35.245819091796875" class="er attributeBoxEven"></rect><text transform="translate(40.245819091796875,97.5)" style="dominant-baseline: middle; font-size: 10.2px;" y="0" x="0" id="text-entity-MediaTrack-58940dd9-5e1a-56c4-a345-a2dfa83dc53b-attr-4-name" class="er entityLabel">track_status</text></g><g transform="translate(20,259.5 )" id="entity-User-818c511a-4a32-5484-ba70-875d765a9175"><rect height="192" width="116.60519409179688" y="0" x="0" class="er entityBox"></rect><text transform="translate(58.30259704589844,12)" style="dominant-baseline: middle; text-anchor: middle; font-size: 12px;" y="0" x="0" id="text-entity-User-818c511a-4a32-5484-ba70-875d765a9175" class="er entityLabel">User</text><rect height="21" width="35.245819091796875" y="24" x="0" class="er attributeBoxOdd"></rect><text transform="translate(5,34.5)" style="dominant-baseline: middle; font-size: 10.2px;" y="0" x="0" id="text-entity-User-818c511a-4a32-5484-ba70-875d765a9175-attr-1-type" class="er entityLabel">uint</text><rect height="21" width="81.359375" y="24" x="35.245819091796875" class="er attributeBoxOdd"></rect><text transform="translate(40.245819091796875,34.5)" style="dominant-baseline: middle; font-size: 10.2px;" y="0" x="0" id="text-entity-User-818c511a-4a32-5484-ba70-875d765a9175-attr-1-name" class="er entityLabel">id</text><rect height="21" width="35.245819091796875" y="45" x="0" class="er attributeBoxEven"></rect><text transform="translate(5,55.5)" style="dominant-baseline: middle; font-size: 10.2px;" y="0" x="0" id="text-entity-User-818c511a-4a32-5484-ba70-875d765a9175-attr-2-type" class="er entityLabel">string</text><rect height="21" width="81.359375" y="45" x="35.245819091796875" class="er attributeBoxEven"></rect><text transform="translate(40.245819091796875,55.5)" style="dominant-baseline: middle; font-size: 10.2px;" y="0" x="0" id="text-entity-User-818c511a-4a32-5484-ba70-875d765a9175-attr-2-name" class="er entityLabel">login</text><rect height="21" width="35.245819091796875" y="66" x="0" class="er attributeBoxOdd"></rect><text transform="translate(5,76.5)" style="dominant-baseline: middle; font-size: 10.2px;" y="0" x="0" id="text-entity-User-818c511a-4a32-5484-ba70-875d765a9175-attr-3-type" class="er entityLabel">string</text><rect height="21" width="81.359375" y="66" x="35.245819091796875" class="er attributeBoxOdd"></rect><text transform="translate(40.245819091796875,76.5)" style="dominant-baseline: middle; font-size: 10.2px;" y="0" x="0" id="text-entity-User-818c511a-4a32-5484-ba70-875d765a9175-attr-3-name" class="er entityLabel">fullname</text><rect height="21" width="35.245819091796875" y="87" x="0" class="er attributeBoxEven"></rect><text transform="translate(5,97.5)" style="dominant-baseline: middle; font-size: 10.2px;" y="0" x="0" id="text-entity-User-818c511a-4a32-5484-ba70-875d765a9175-attr-4-type" class="er entityLabel">string</text><rect height="21" width="81.359375" y="87" x="35.245819091796875" class="er attributeBoxEven"></rect><text transform="translate(40.245819091796875,97.5)" style="dominant-baseline: middle; font-size: 10.2px;" y="0" x="0" id="text-entity-User-818c511a-4a32-5484-ba70-875d765a9175-attr-4-name" class="er entityLabel">email</text><rect height="21" width="35.245819091796875" y="108" x="0" class="er attributeBoxOdd"></rect><text transform="translate(5,118.5)" style="dominant-baseline: middle; font-size: 10.2px;" y="0" x="0" id="text-entity-User-818c511a-4a32-5484-ba70-875d765a9175-attr-5-type" class="er entityLabel">string</text><rect height="21" width="81.359375" y="108" x="35.245819091796875" class="er attributeBoxOdd"></rect><text transform="translate(40.245819091796875,118.5)" style="dominant-baseline: middle; font-size: 10.2px;" y="0" x="0" id="text-entity-User-818c511a-4a32-5484-ba70-875d765a9175-attr-5-name" class="er entityLabel">password_hash</text><rect height="21" width="35.245819091796875" y="129" x="0" class="er attributeBoxEven"></rect><text transform="translate(5,139.5)" style="dominant-baseline: middle; font-size: 10.2px;" y="0" x="0" id="text-entity-User-818c511a-4a32-5484-ba70-875d765a9175-attr-6-type" class="er entityLabel">string</text><rect height="21" width="81.359375" y="129" x="35.245819091796875" class="er attributeBoxEven"></rect><text transform="translate(40.245819091796875,139.5)" style="dominant-baseline: middle; font-size: 10.2px;" y="0" x="0" id="text-entity-User-818c511a-4a32-5484-ba70-875d765a9175-attr-6-name" class="er entityLabel">avatar</text><rect height="21" width="35.245819091796875" y="150" x="0" class="er attributeBoxOdd"></rect><text transform="translate(5,160.5)" style="dominant-baseline: middle; font-size: 10.2px;" y="0" x="0" id="text-entity-User-818c511a-4a32-5484-ba70-875d765a9175-attr-7-type" class="er entityLabel">time</text><rect height="21" width="81.359375" y="150" x="35.245819091796875" class="er attributeBoxOdd"></rect><text transform="translate(40.245819091796875,160.5)" style="dominant-baseline: middle; font-size: 10.2px;" y="0" x="0" id="text-entity-User-818c511a-4a32-5484-ba70-875d765a9175-attr-7-name" class="er entityLabel">created_at</text><rect height="21" width="35.245819091796875" y="171" x="0" class="er attributeBoxEven"></rect><text transform="translate(5,181.5)" style="dominant-baseline: middle; font-size: 10.2px;" y="0" x="0" id="text-entity-User-818c511a-4a32-5484-ba70-875d765a9175-attr-8-type" class="er entityLabel">time</text><rect height="21" width="81.359375" y="171" x="35.245819091796875" class="er attributeBoxEven"></rect><text transform="translate(40.245819091796875,181.5)" style="dominant-baseline: middle; font-size: 10.2px;" y="0" x="0" id="text-entity-User-818c511a-4a32-5484-ba70-875d765a9175-attr-8-name" class="er entityLabel">last_login_at</text></g><g transform="translate(272.9059753417969,228 )" id="entity-Media-6b8788c2-4578-56bd-8250-26f9b8c7c7ec"><rect height="255" width="138.375" y="0" x="0" class="er entityBox"></rect><text transform="translate(69.1875,12)" style="dominant-baseline: middle; text-anchor: middle; font-size: 12px;" y="0" x="0" id="text-entity-Media-6b8788c2-4578-56bd-8250-26f9b8c7c7ec" class="er entityLabel">Media</text><rect height="21" width="46.828125" y="24" x="0" class="er attributeBoxOdd"></rect><text transform="translate(5,34.5)" style="dominant-baseline: middle; font-size: 10.2px;" y="0" x="0" id="text-entity-Media-6b8788c2-4578-56bd-8250-26f9b8c7c7ec-attr-1-type" class="er entityLabel">uint</text><rect height="21" width="91.546875" y="24" x="46.828125" class="er attributeBoxOdd"></rect><text transform="translate(51.828125,34.5)" style="dominant-baseline: middle; font-size: 10.2px;" y="0" x="0" id="text-entity-Media-6b8788c2-4578-56bd-8250-26f9b8c7c7ec-attr-1-name" class="er entityLabel">id</text><rect height="21" width="46.828125" y="45" x="0" class="er attributeBoxEven"></rect><text transform="translate(5,55.5)" style="dominant-baseline: middle; font-size: 10.2px;" y="0" x="0" id="text-entity-Media-6b8788c2-4578-56bd-8250-26f9b8c7c7ec-attr-2-type" class="er entityLabel">string</text><rect height="21" width="91.546875" y="45" x="46.828125" class="er attributeBoxEven"></rect><text transform="translate(51.828125,55.5)" style="dominant-baseline: middle; font-size: 10.2px;" y="0" x="0" id="text-entity-Media-6b8788c2-4578-56bd-8250-26f9b8c7c7ec-attr-2-name" class="er entityLabel">title</text><rect height="21" width="46.828125" y="66" x="0" class="er attributeBoxOdd"></rect><text transform="translate(5,76.5)" style="dominant-baseline: middle; font-size: 10.2px;" y="0" x="0" id="text-entity-Media-6b8788c2-4578-56bd-8250-26f9b8c7c7ec-attr-3-type" class="er entityLabel">string</text><rect height="21" width="91.546875" y="66" x="46.828125" class="er attributeBoxOdd"></rect><text transform="translate(51.828125,76.5)" style="dominant-baseline: middle; font-size: 10.2px;" y="0" x="0" id="text-entity-Media-6b8788c2-4578-56bd-8250-26f9b8c7c7ec-attr-3-name" class="er entityLabel">description</text><rect height="21" width="46.828125" y="87" x="0" class="er attributeBoxEven"></rect><text transform="translate(5,97.5)" style="dominant-baseline: middle; font-size: 10.2px;" y="0" x="0" id="text-entity-Media-6b8788c2-4578-56bd-8250-26f9b8c7c7ec-attr-4-type" class="er entityLabel">string</text><rect height="21" width="91.546875" y="87" x="46.828125" class="er attributeBoxEven"></rect><text transform="translate(51.828125,97.5)" style="dominant-baseline: middle; font-size: 10.2px;" y="0" x="0" id="text-entity-Media-6b8788c2-4578-56bd-8250-26f9b8c7c7ec-attr-4-name" class="er entityLabel">image</text><rect height="21" width="46.828125" y="108" x="0" class="er attributeBoxOdd"></rect><text transform="translate(5,118.5)" style="dominant-baseline: middle; font-size: 10.2px;" y="0" x="0" id="text-entity-Media-6b8788c2-4578-56bd-8250-26f9b8c7c7ec-attr-5-type" class="er entityLabel">string</text><rect height="21" width="91.546875" y="108" x="46.828125" class="er attributeBoxOdd"></rect><text transform="translate(51.828125,118.5)" style="dominant-baseline: middle; font-size: 10.2px;" y="0" x="0" id="text-entity-Media-6b8788c2-4578-56bd-8250-26f9b8c7c7ec-attr-5-name" class="er entityLabel">category</text><rect height="21" width="46.828125" y="129" x="0" class="er attributeBoxEven"></rect><text transform="translate(5,139.5)" style="dominant-baseline: middle; font-size: 10.2px;" y="0" x="0" id="text-entity-Media-6b8788c2-4578-56bd-8250-26f9b8c7c7ec-attr-6-type" class="er entityLabel">uint</text><rect height="21" width="91.546875" y="129" x="46.828125" class="er attributeBoxEven"></rect><text transform="translate(51.828125,139.5)" style="dominant-baseline: middle; font-size: 10.2px;" y="0" x="0" id="text-entity-Media-6b8788c2-4578-56bd-8250-26f9b8c7c7ec-attr-6-name" class="er entityLabel">cumulative_rating</text><rect height="21" width="46.828125" y="150" x="0" class="er attributeBoxOdd"></rect><text transform="translate(5,160.5)" style="dominant-baseline: middle; font-size: 10.2px;" y="0" x="0" id="text-entity-Media-6b8788c2-4578-56bd-8250-26f9b8c7c7ec-attr-7-type" class="er entityLabel">uint</text><rect height="21" width="91.546875" y="150" x="46.828125" class="er attributeBoxOdd"></rect><text transform="translate(51.828125,160.5)" style="dominant-baseline: middle; font-size: 10.2px;" y="0" x="0" id="text-entity-Media-6b8788c2-4578-56bd-8250-26f9b8c7c7ec-attr-7-name" class="er entityLabel">number_of_votes</text><rect height="21" width="46.828125" y="171" x="0" class="er attributeBoxEven"></rect><text transform="translate(5,181.5)" style="dominant-baseline: middle; font-size: 10.2px;" y="0" x="0" id="text-entity-Media-6b8788c2-4578-56bd-8250-26f9b8c7c7ec-attr-8-type" class="er entityLabel">uint</text><rect height="21" width="91.546875" y="171" x="46.828125" class="er attributeBoxEven"></rect><text transform="translate(51.828125,181.5)" style="dominant-baseline: middle; font-size: 10.2px;" y="0" x="0" id="text-entity-Media-6b8788c2-4578-56bd-8250-26f9b8c7c7ec-attr-8-name" class="er entityLabel">number_of_tracks</text><rect height="21" width="46.828125" y="192" x="0" class="er attributeBoxOdd"></rect><text transform="translate(5,202.5)" style="dominant-baseline: middle; font-size: 10.2px;" y="0" x="0" id="text-entity-Media-6b8788c2-4578-56bd-8250-26f9b8c7c7ec-attr-9-type" class="er entityLabel">uint</text><rect height="21" width="91.546875" y="192" x="46.828125" class="er attributeBoxOdd"></rect><text transform="translate(51.828125,202.5)" style="dominant-baseline: middle; font-size: 10.2px;" y="0" x="0" id="text-entity-Media-6b8788c2-4578-56bd-8250-26f9b8c7c7ec-attr-9-name" class="er entityLabel">votes</text><rect height="21" width="46.828125" y="213" x="0" class="er attributeBoxEven"></rect><text transform="translate(5,223.5)" style="dominant-baseline: middle; font-size: 10.2px;" y="0" x="0" id="text-entity-Media-6b8788c2-4578-56bd-8250-26f9b8c7c7ec-attr-10-type" class="er entityLabel">uint</text><rect height="21" width="91.546875" y="213" x="46.828125" class="er attributeBoxEven"></rect><text transform="translate(51.828125,223.5)" style="dominant-baseline: middle; font-size: 10.2px;" y="0" x="0" id="text-entity-Media-6b8788c2-4578-56bd-8250-26f9b8c7c7ec-attr-10-name" class="er entityLabel">release_year</text><rect height="21" width="46.828125" y="234" x="0" class="er attributeBoxOdd"></rect><text transform="translate(5,244.5)" style="dominant-baseline: middle; font-size: 10.2px;" y="0" x="0" id="text-entity-Media-6b8788c2-4578-56bd-8250-26f9b8c7c7ec-attr-11-type" class="er entityLabel">duration</text><rect height="21" width="91.546875" y="234" x="46.828125" class="er attributeBoxOdd"></rect><text transform="translate(51.828125,244.5)" style="dominant-baseline: middle; font-size: 10.2px;" y="0" x="0" id="text-entity-Media-6b8788c2-4578-56bd-8250-26f9b8c7c7ec-attr-11-name" class="er entityLabel">duration</text></g><g transform="translate(342.0934753417969,41 )" id="entity-Genre-89a06bcb-f85b-5ab0-902b-dd22348e327e"><rect height="66" width="100" y="0" x="0" class="er entityBox"></rect><text transform="translate(50,12)" style="dominant-baseline: middle; text-anchor: middle; font-size: 12px;" y="0" x="0" id="text-entity-Genre-89a06bcb-f85b-5ab0-902b-dd22348e327e" class="er entityLabel">Genre</text><rect height="21" width="41.78483581542969" y="24" x="0" class="er attributeBoxOdd"></rect><text transform="translate(5,34.5)" style="dominant-baseline: middle; font-size: 10.2px;" y="0" x="0" id="text-entity-Genre-89a06bcb-f85b-5ab0-902b-dd22348e327e-attr-1-type" class="er entityLabel">uint</text><rect height="21" width="58.21516418457031" y="24" x="41.78483581542969" class="er attributeBoxOdd"></rect><text transform="translate(46.78483581542969,34.5)" style="dominant-baseline: middle; font-size: 10.2px;" y="0" x="0" id="text-entity-Genre-89a06bcb-f85b-5ab0-902b-dd22348e327e-attr-1-name" class="er entityLabel">media_id</text><rect height="21" width="41.78483581542969" y="45" x="0" class="er attributeBoxEven"></rect><text transform="translate(5,55.5)" style="dominant-baseline: middle; font-size: 10.2px;" y="0" x="0" id="text-entity-Genre-89a06bcb-f85b-5ab0-902b-dd22348e327e-attr-2-type" class="er entityLabel">string</text><rect height="21" width="58.21516418457031" y="45" x="41.78483581542969" class="er attributeBoxEven"></rect><text transform="translate(46.78483581542969,55.5)" style="dominant-baseline: middle; font-size: 10.2px;" y="0" x="0" id="text-entity-Genre-89a06bcb-f85b-5ab0-902b-dd22348e327e-attr-2-name" class="er entityLabel">genre</text></g><g transform="translate(178.34842681884766,583 )" id="entity-Comment-09a819da-2a79-5b7d-8a84-94cec22d9152"><rect height="150" width="100" y="0" x="0" class="er entityBox"></rect><text transform="translate(50,12)" style="dominant-baseline: middle; text-anchor: middle; font-size: 12px;" y="0" x="0" id="text-entity-Comment-09a819da-2a79-5b7d-8a84-94cec22d9152" class="er entityLabel">Comment</text><rect height="21" width="40.08360290527344" y="24" x="0" class="er attributeBoxOdd"></rect><text transform="translate(5,34.5)" style="dominant-baseline: middle; font-size: 10.2px;" y="0" x="0" id="text-entity-Comment-09a819da-2a79-5b7d-8a84-94cec22d9152-attr-1-type" class="er entityLabel">uint</text><rect height="21" width="59.91639709472656" y="24" x="40.08360290527344" class="er attributeBoxOdd"></rect><text transform="translate(45.08360290527344,34.5)" style="dominant-baseline: middle; font-size: 10.2px;" y="0" x="0" id="text-entity-Comment-09a819da-2a79-5b7d-8a84-94cec22d9152-attr-1-name" class="er entityLabel">id</text><rect height="21" width="40.08360290527344" y="45" x="0" class="er attributeBoxEven"></rect><text transform="translate(5,55.5)" style="dominant-baseline: middle; font-size: 10.2px;" y="0" x="0" id="text-entity-Comment-09a819da-2a79-5b7d-8a84-94cec22d9152-attr-2-type" class="er entityLabel">uint</text><rect height="21" width="59.91639709472656" y="45" x="40.08360290527344" class="er attributeBoxEven"></rect><text transform="translate(45.08360290527344,55.5)" style="dominant-baseline: middle; font-size: 10.2px;" y="0" x="0" id="text-entity-Comment-09a819da-2a79-5b7d-8a84-94cec22d9152-attr-2-name" class="er entityLabel">sender_id</text><rect height="21" width="40.08360290527344" y="66" x="0" class="er attributeBoxOdd"></rect><text transform="translate(5,76.5)" style="dominant-baseline: middle; font-size: 10.2px;" y="0" x="0" id="text-entity-Comment-09a819da-2a79-5b7d-8a84-94cec22d9152-attr-3-type" class="er entityLabel">uint</text><rect height="21" width="59.91639709472656" y="66" x="40.08360290527344" class="er attributeBoxOdd"></rect><text transform="translate(45.08360290527344,76.5)" style="dominant-baseline: middle; font-size: 10.2px;" y="0" x="0" id="text-entity-Comment-09a819da-2a79-5b7d-8a84-94cec22d9152-attr-3-name" class="er entityLabel">media_id</text><rect height="21" width="40.08360290527344" y="87" x="0" class="er attributeBoxEven"></rect><text transform="translate(5,97.5)" style="dominant-baseline: middle; font-size: 10.2px;" y="0" x="0" id="text-entity-Comment-09a819da-2a79-5b7d-8a84-94cec22d9152-attr-4-type" class="er entityLabel">string</text><rect height="21" width="59.91639709472656" y="87" x="40.08360290527344" class="er attributeBoxEven"></rect><text transform="translate(45.08360290527344,97.5)" style="dominant-baseline: middle; font-size: 10.2px;" y="0" x="0" id="text-entity-Comment-09a819da-2a79-5b7d-8a84-94cec22d9152-attr-4-name" class="er entityLabel">content</text><rect height="21" width="40.08360290527344" y="108" x="0" class="er attributeBoxOdd"></rect><text transform="translate(5,118.5)" style="dominant-baseline: middle; font-size: 10.2px;" y="0" x="0" id="text-entity-Comment-09a819da-2a79-5b7d-8a84-94cec22d9152-attr-5-type" class="er entityLabel">time</text><rect height="21" width="59.91639709472656" y="108" x="40.08360290527344" class="er attributeBoxOdd"></rect><text transform="translate(45.08360290527344,118.5)" style="dominant-baseline: middle; font-size: 10.2px;" y="0" x="0" id="text-entity-Comment-09a819da-2a79-5b7d-8a84-94cec22d9152-attr-5-name" class="er entityLabel">send_at</text><rect height="21" width="40.08360290527344" y="129" x="0" class="er attributeBoxEven"></rect><text transform="translate(5,139.5)" style="dominant-baseline: middle; font-size: 10.2px;" y="0" x="0" id="text-entity-Comment-09a819da-2a79-5b7d-8a84-94cec22d9152-attr-6-type" class="er entityLabel">time</text><rect height="21" width="59.91639709472656" y="129" x="40.08360290527344" class="er attributeBoxEven"></rect><text transform="translate(45.08360290527344,139.5)" style="dominant-baseline: middle; font-size: 10.2px;" y="0" x="0" id="text-entity-Comment-09a819da-2a79-5b7d-8a84-94cec22d9152-attr-6-name" class="er entityLabel">edited_at</text></g><rect height="14" width="61.359375" y="184.8818359375" x="50.28004455566406" class="er relationshipLabelBox"></rect><text style="text-anchor: middle; dominant-baseline: middle; font-size: 12px;" y="191.8818359375" x="80.95973205566406" id="rel305" class="er relationshipLabel">FK: user_id</text><rect height="14" width="70.703125" y="164.49720764160156" x="196.11439514160156" class="er relationshipLabelBox"></rect><text style="text-anchor: middle; dominant-baseline: middle; font-size: 12px;" y="171.49720764160156" x="231.46595764160156" id="rel306" class="er relationshipLabel">FK: media_id</text><rect height="14" width="70.703125" y="161.1648712158203" x="355.04791259765625" class="er relationshipLabelBox"></rect><text style="text-anchor: middle; dominant-baseline: middle; font-size: 12px;" y="168.1648712158203" x="390.39947509765625" id="rel307" class="er relationshipLabel">FK: media_id</text><rect height="14" width="74.71875" y="539.9855346679688" x="67.17507934570312" class="er relationshipLabelBox"></rect><text style="text-anchor: middle; dominant-baseline: middle; font-size: 12px;" y="546.9855346679688" x="104.53445434570312" id="rel308" class="er relationshipLabel">FK: sender_id</text><rect height="14" width="70.703125" y="542.2921142578125" x="288.187255859375" class="er relationshipLabelBox"></rect><text style="text-anchor: middle; dominant-baseline: middle; font-size: 12px;" y="549.2921142578125" x="323.538818359375" id="rel309" class="er relationshipLabel">FK: media_id</text></svg>